<svg width="37" height="37" viewBox="0 0 37 37" fill="none" xmlns="http://www.w3.org/2000/svg">
<path d="M18.5 0C8.288 0 0 8.288 0 18.5C0 28.712 8.288 37 18.5 37C28.712 37 37 28.712 37 18.5C37 8.288 28.712 0 18.5 0ZM32.301 13.172L27.158 15.2995C26.2145 12.7835 24.235 10.7855 21.7005 9.8605L23.828 4.7175C27.713 6.1975 30.8025 9.287 32.301 13.172ZM18.5 24.05C15.429 24.05 12.95 21.571 12.95 18.5C12.95 15.429 15.429 12.95 18.5 12.95C21.571 12.95 24.05 15.429 24.05 18.5C24.05 21.571 21.571 24.05 18.5 24.05ZM13.1905 4.699L15.355 9.842C12.802 10.767 10.7855 12.7835 9.842 15.3365L4.699 13.1905C6.1975 9.287 9.287 6.1975 13.1905 4.699ZM4.699 23.8095L9.842 21.682C10.7855 24.235 12.7835 26.233 15.3365 27.158L13.172 32.301C9.287 30.8025 6.1975 27.713 4.699 23.8095ZM23.828 32.301L21.7005 27.158C24.235 26.2145 26.233 24.2165 27.158 21.6635L32.301 23.828C30.8025 27.713 27.713 30.8025 23.828 32.301Z" fill="black"/>
</svg>
