<svg width="37" height="37" viewBox="0 0 37 37" fill="none" xmlns="http://www.w3.org/2000/svg">
<path d="M33.3 7.78947H29.267C29.4705 7.18579 29.6 6.52368 29.6 5.8421C29.6 2.60947 27.121 0 24.05 0C22.1075 0 20.424 1.05158 19.425 2.62895L18.5 3.93368L17.575 2.60947C16.576 1.05158 14.8925 0 12.95 0C9.879 0 7.4 2.60947 7.4 5.8421C7.4 6.52368 7.5295 7.18579 7.733 7.78947H3.7C1.6465 7.78947 0.0185 9.52263 0.0185 11.6842L0 33.1053C0 35.2668 1.6465 37 3.7 37H33.3C35.3535 37 37 35.2668 37 33.1053V11.6842C37 9.52263 35.3535 7.78947 33.3 7.78947ZM24.05 3.89474C25.0675 3.89474 25.9 4.77105 25.9 5.8421C25.9 6.91316 25.0675 7.78947 24.05 7.78947C23.0325 7.78947 22.2 6.91316 22.2 5.8421C22.2 4.77105 23.0325 3.89474 24.05 3.89474ZM12.95 3.89474C13.9675 3.89474 14.8 4.77105 14.8 5.8421C14.8 6.91316 13.9675 7.78947 12.95 7.78947C11.9325 7.78947 11.1 6.91316 11.1 5.8421C11.1 4.77105 11.9325 3.89474 12.95 3.89474ZM33.3 33.1053H3.7V29.2105H33.3V33.1053ZM33.3 23.3684H3.7V11.6842H13.098L9.25 17.1953L12.247 19.4737L16.65 13.1642L18.5 10.5158L20.35 13.1642L24.753 19.4737L27.75 17.1953L23.902 11.6842H33.3V23.3684Z" fill="black"/>
</svg>
