<svg width="37" height="37" viewBox="0 0 37 37" fill="none" xmlns="http://www.w3.org/2000/svg">
<path d="M18.3532 14.0952H22.0238V8.80952H27.5298V5.28571H22.0238V0H18.3532V5.28571H12.8472V8.80952H18.3532V14.0952ZM11.0119 29.9524C8.99306 29.9524 7.35962 31.5381 7.35962 33.4762C7.35962 35.4143 8.99306 37 11.0119 37C13.0308 37 14.6825 35.4143 14.6825 33.4762C14.6825 31.5381 13.0308 29.9524 11.0119 29.9524ZM29.3651 29.9524C27.3462 29.9524 25.7128 31.5381 25.7128 33.4762C25.7128 35.4143 27.3462 37 29.3651 37C31.3839 37 33.0357 35.4143 33.0357 33.4762C33.0357 31.5381 31.3839 29.9524 29.3651 29.9524ZM11.3239 24.2262L11.379 24.0148L13.0308 21.1429H26.7039C28.0804 21.1429 29.2917 20.4205 29.9157 19.3281L37 6.97714L33.8065 5.28571H33.7882L31.7693 8.80952L26.7039 17.619H13.8199L13.5813 17.1433L9.47024 8.80952L7.72669 5.28571L6.00149 1.7619H0V5.28571H3.67063L10.2778 18.6586L7.8001 22.9752C7.50645 23.4686 7.34127 24.05 7.34127 24.6667C7.34127 26.6048 8.99306 28.1905 11.0119 28.1905H33.0357V24.6667H11.7827C11.5441 24.6667 11.3239 24.4729 11.3239 24.2262Z" fill="black"/>
</svg>
